<svg width="66" height="44" viewBox="0 0 66 44" fill="none" xmlns="http://www.w3.org/2000/svg">
<path d="M18.427 1.10791H6.98953C6.46002 1.21343 5.401 1.80432 5.401 3.32374C5.401 4.84317 6.46002 5.43405 6.98953 5.53957H15.7265L25.4165 35.295H51.4684C51.9449 35.3477 52.8981 35.0734 52.8981 33.554C52.8981 32.0345 51.9449 31.4436 51.4684 31.3381H28.7524L27.7993 28.4892H52.1038C53.3746 28.4892 53.7982 27.6451 53.8512 27.223V12.187C54.3277 5.38129 57.9814 5.11751 59.0933 5.53957C58.2991 5.53957 55.7574 6.01439 55.9163 9.17986C56.5517 12.8518 59.6758 11.2374 60.9996 9.65468C61.7938 8.70504 62.6199 6.23597 65.2886 3.95683C57.5048 -2.21583 52.1038 -0.791367 50.9918 8.23022C40.3487 -3.00719 30.4998 4.27338 26.8462 15.036C30.0232 14.2763 32.406 15.036 33.2003 15.5108C35.1595 16.6715 39.5544 18.9611 41.4606 18.8345C43.8434 18.6763 46.8616 18.2014 48.2913 13.9281C45.2731 11.0791 44.32 9.65468 34.4711 10.9209C42.2231 7.88201 47.4441 11.3429 49.0856 13.4532V24.3741L26.2108 24.0576L18.427 1.10791Z" fill="url(#paint0_linear_34_1747)"/>
<path d="M33.0414 40.6763C33.0414 42.5119 31.5479 44 29.7055 44C27.8631 44 26.3696 42.5119 26.3696 40.6763C26.3696 38.8406 27.8631 37.3525 29.7055 37.3525C31.5479 37.3525 33.0414 38.8406 33.0414 40.6763Z" fill="url(#paint1_linear_34_1747)"/>
<path d="M51.7861 40.6763C51.7861 42.5119 50.2926 44 48.4502 44C46.6078 44 45.1143 42.5119 45.1143 40.6763C45.1143 38.8406 46.6078 37.3525 48.4502 37.3525C50.2926 37.3525 51.7861 38.8406 51.7861 40.6763Z" fill="url(#paint2_linear_34_1747)"/>
<path d="M0 3.16547C0 1.41723 1.42242 0 3.17706 0H9.53118C11.2858 0 12.7082 1.41723 12.7082 3.16547V3.48201C12.7082 5.23025 11.2858 6.64748 9.53118 6.64748H3.17706C1.42242 6.64748 0 5.23025 0 3.48201V3.16547Z" fill="url(#paint3_linear_34_1747)"/>
<defs>
<linearGradient id="paint0_linear_34_1747" x1="4.76559" y1="44" x2="74.8084" y2="-5.46403" gradientUnits="userSpaceOnUse">
<stop offset="0.187718" stop-color="#48B6CE"/>
<stop offset="0.9422" stop-color="#F2D210"/>
</linearGradient>
<linearGradient id="paint1_linear_34_1747" x1="4.76559" y1="44" x2="74.8084" y2="-5.46403" gradientUnits="userSpaceOnUse">
<stop offset="0.187718" stop-color="#48B6CE"/>
<stop offset="0.9422" stop-color="#F2D210"/>
</linearGradient>
<linearGradient id="paint2_linear_34_1747" x1="4.76559" y1="44" x2="74.8084" y2="-5.46403" gradientUnits="userSpaceOnUse">
<stop offset="0.187718" stop-color="#48B6CE"/>
<stop offset="0.9422" stop-color="#F2D210"/>
</linearGradient>
<linearGradient id="paint3_linear_34_1747" x1="4.76559" y1="44" x2="74.8084" y2="-5.46403" gradientUnits="userSpaceOnUse">
<stop offset="0.187718" stop-color="#48B6CE"/>
<stop offset="0.9422" stop-color="#F2D210"/>
</linearGradient>
</defs>
</svg>
