<svg width="65" height="64" viewBox="0 0 65 64" fill="none" xmlns="http://www.w3.org/2000/svg">
<mask id="mask0_116_1338" style="mask-type:alpha" maskUnits="userSpaceOnUse" x="0" y="0" width="65" height="64">
<path d="M52.8125 0C56.1697 0 59.0403 1.17243 61.4242 3.51728C63.808 5.86213 65 8.68567 65 11.9879V51.9475C65 55.2497 63.808 58.0732 61.4242 60.4181C59.0403 62.763 56.1697 63.9354 52.8125 63.9354H44.8568V39.1687H53.278L54.5475 29.5118H44.8568V23.3514C44.8568 21.7974 45.1883 20.6319 45.8512 19.8549C46.5142 19.0779 47.8049 18.6894 49.7233 18.6894L54.8861 18.6478V10.0315C53.1087 9.78178 50.5979 9.65691 47.3535 9.65691C43.5167 9.65691 40.4487 10.7669 38.1494 12.9869C35.8502 15.2069 34.7005 18.3426 34.7005 22.394V29.5118H26.237V39.1687H34.7005V63.9354H12.1875C8.8303 63.9354 5.95974 62.763 3.57585 60.4181C1.19195 58.0732 0 55.2497 0 51.9475V11.9879C0 8.68567 1.19195 5.86213 3.57585 3.51728C5.95974 1.17243 8.8303 0 12.1875 0H52.8125Z" fill="white"/>
</mask>
<g mask="url(#mask0_116_1338)">
<rect width="65" height="64" rx="12" fill="white"/>
</g>
</svg>
