<svg width="66" height="64" viewBox="0 0 66 64" fill="none" xmlns="http://www.w3.org/2000/svg">
<mask id="mask0_116_1336" style="mask-type:alpha" maskUnits="userSpaceOnUse" x="0" y="0" width="66" height="64">
<path d="M32.4919 21.3073C26.5241 21.3073 21.6539 26.0977 21.6539 31.9677C21.6539 37.8377 26.5241 42.6281 32.4919 42.6281C38.4597 42.6281 43.3298 37.8377 43.3298 31.9677C43.3298 26.0977 38.4597 21.3073 32.4919 21.3073ZM64.9976 31.9677C64.9976 27.5532 65.0382 23.1786 64.7862 18.7721C64.5341 13.6538 63.3471 9.11133 59.542 5.36858C55.7288 1.61784 51.1188 0.458226 45.9153 0.210309C41.4273 -0.037608 36.9799 0.00237876 32.5 0.00237876C28.012 0.00237876 23.5646 -0.037608 19.0847 0.210309C13.8812 0.458226 9.26305 1.62584 5.45798 5.36858C1.64478 9.11933 0.465856 13.6538 0.213811 18.7721C-0.0382342 23.1866 0.00241837 27.5612 0.00241837 31.9677C0.00241837 36.3742 -0.0382342 40.7568 0.213811 45.1633C0.465856 50.2816 1.65291 54.824 5.45798 58.5668C9.27118 62.3175 13.8812 63.4772 19.0847 63.7251C23.5727 63.973 28.0201 63.933 32.5 63.933C36.988 63.933 41.4354 63.973 45.9153 63.7251C51.1188 63.4772 55.737 62.3095 59.542 58.5668C63.3552 54.816 64.5341 50.2816 64.7862 45.1633C65.0464 40.7568 64.9976 36.3822 64.9976 31.9677ZM32.4919 48.3702C23.2638 48.3702 15.8162 41.0447 15.8162 31.9677C15.8162 22.8907 23.2638 15.5652 32.4919 15.5652C41.72 15.5652 49.1675 22.8907 49.1675 31.9677C49.1675 41.0447 41.72 48.3702 32.4919 48.3702ZM49.8505 18.7241C47.6959 18.7241 45.956 17.0127 45.956 14.8934C45.956 12.7741 47.6959 11.0627 49.8505 11.0627C52.0051 11.0627 53.745 12.7741 53.745 14.8934C53.7456 15.3966 53.6453 15.895 53.4498 16.3601C53.2543 16.8251 52.9675 17.2477 52.6057 17.6035C52.244 17.9594 51.8144 18.2415 51.3416 18.4338C50.8688 18.6261 50.3621 18.7247 49.8505 18.7241Z" fill="white"/>
</mask>
<g mask="url(#mask0_116_1336)">
<rect width="65" height="64" rx="12" fill="white"/>
</g>
</svg>
