<svg width="65" height="64" viewBox="0 0 65 64" fill="none" xmlns="http://www.w3.org/2000/svg">
<mask id="mask0_116_1337" style="mask-type:alpha" maskUnits="userSpaceOnUse" x="0" y="0" width="65" height="64">
<path d="M9.28571 0C4.16406 0 0 4.09586 0 9.13363V54.8018C0 59.8395 4.16406 63.9354 9.28571 63.9354H55.7143C60.8359 63.9354 65 59.8395 65 54.8018V9.13363C65 4.09586 60.8359 0 55.7143 0H9.28571ZM50.9699 23.8759C50.9699 36.2491 41.394 50.5061 23.8962 50.5061C18.4989 50.5061 13.4933 48.9648 9.28571 46.3103C10.0547 46.396 10.7946 46.4245 11.5781 46.4245C16.0324 46.4245 20.1239 44.9403 23.3884 42.4285C19.2098 42.3429 15.6987 39.6456 14.4944 35.9351C15.9598 36.1492 17.2801 36.1492 18.7891 35.7639C14.4364 34.8933 11.1719 31.1257 11.1719 26.5731V26.459C12.4342 27.1583 13.9141 27.5864 15.4665 27.6435C14.1607 26.7872 13.0871 25.6312 12.3471 24.2755C11.6071 22.9197 11.2154 21.3927 11.2299 19.8514C11.2299 18.1103 11.6942 16.5119 12.5212 15.1276C17.2076 20.8075 24.2444 24.5181 32.1373 24.9177C30.7879 18.5669 35.6194 13.415 41.423 13.415C44.1652 13.415 46.6317 14.5424 48.3728 16.3692C50.5201 15.9696 52.5804 15.1847 54.4085 14.1143C53.6975 16.2835 52.2031 18.1103 50.2299 19.2662C52.1451 19.0664 54.0022 18.5384 55.7143 17.8106C54.423 19.6801 52.798 21.3356 50.9408 22.6628C50.9699 23.0624 50.9699 23.4763 50.9699 23.8759Z" fill="white"/>
</mask>
<g mask="url(#mask0_116_1337)">
<rect width="65" height="64" rx="12" fill="white"/>
</g>
</svg>
