<svg width="40" height="28" viewBox="0 0 40 28" fill="none" xmlns="http://www.w3.org/2000/svg">
<path d="M11.2895 0.705036H4.28224C3.95783 0.772182 3.309 1.1482 3.309 2.11511C3.309 3.08201 3.95783 3.45803 4.28224 3.52518H9.63504L15.5718 22.4604H31.5328C31.8248 22.494 32.4088 22.3194 32.4088 21.3525C32.4088 20.3856 31.8248 20.0096 31.5328 19.9424H17.6156L17.0316 18.1295H31.9221C32.7007 18.1295 32.9603 17.5923 32.9927 17.3237V7.75539C33.2847 3.42446 35.5231 3.25659 36.2044 3.52518C35.7178 3.52518 34.1606 3.82734 34.2579 5.84173C34.6472 8.17842 36.5612 7.15108 37.3723 6.14389C37.8589 5.53957 38.365 3.96835 40 2.51799C35.2311 -1.41007 31.9221 -0.503597 31.2409 5.23741C24.7202 -1.91367 18.6861 2.71942 16.4477 9.56834C18.3942 9.08489 19.854 9.56834 20.3406 9.8705C21.541 10.6091 24.2336 12.0662 25.4015 11.9856C26.8613 11.8849 28.7105 11.5827 29.5864 8.86331C27.7372 7.05036 27.1533 6.14388 21.1192 6.94964C25.8686 5.01583 29.0673 7.21822 30.073 8.56115V15.5108L16.0584 15.3094L11.2895 0.705036Z" fill="url(#paint0_linear_64_1219)"/>
<path d="M20.2433 25.8849C20.2433 27.053 19.3283 28 18.1995 28C17.0708 28 16.1557 27.053 16.1557 25.8849C16.1557 24.7167 17.0708 23.7698 18.1995 23.7698C19.3283 23.7698 20.2433 24.7167 20.2433 25.8849Z" fill="url(#paint1_linear_64_1219)"/>
<path d="M31.7275 25.8849C31.7275 27.053 30.8125 28 29.6837 28C28.5549 28 27.6399 27.053 27.6399 25.8849C27.6399 24.7167 28.5549 23.7698 29.6837 23.7698C30.8125 23.7698 31.7275 24.7167 31.7275 25.8849Z" fill="url(#paint2_linear_64_1219)"/>
<path d="M0 2.01439C0 0.901872 0.871465 0 1.94647 0H5.83942C6.91442 0 7.78589 0.901872 7.78589 2.01439V2.21583C7.78589 3.32834 6.91442 4.23022 5.83942 4.23022H1.94647C0.871465 4.23022 0 3.32834 0 2.21583V2.01439Z" fill="url(#paint3_linear_64_1219)"/>
<defs>
<linearGradient id="paint0_linear_64_1219" x1="2.91971" y1="28" x2="46.9023" y2="-1.90361" gradientUnits="userSpaceOnUse">
<stop offset="0.187718" stop-color="#48B6CE"/>
<stop offset="0.9422" stop-color="#F2D210"/>
</linearGradient>
<linearGradient id="paint1_linear_64_1219" x1="2.91971" y1="28" x2="46.9023" y2="-1.90361" gradientUnits="userSpaceOnUse">
<stop offset="0.187718" stop-color="#48B6CE"/>
<stop offset="0.9422" stop-color="#F2D210"/>
</linearGradient>
<linearGradient id="paint2_linear_64_1219" x1="2.91971" y1="28" x2="46.9023" y2="-1.90361" gradientUnits="userSpaceOnUse">
<stop offset="0.187718" stop-color="#48B6CE"/>
<stop offset="0.9422" stop-color="#F2D210"/>
</linearGradient>
<linearGradient id="paint3_linear_64_1219" x1="2.91971" y1="28" x2="46.9023" y2="-1.90361" gradientUnits="userSpaceOnUse">
<stop offset="0.187718" stop-color="#48B6CE"/>
<stop offset="0.9422" stop-color="#F2D210"/>
</linearGradient>
</defs>
</svg>
